# Blender v2.77 (sub 0) OBJ File: 'seasonalTree1.blend'
# www.blender.org
o Icosphere
v 0.000000 0.825821 0.000000
v 0.876235 1.119075 0.500054
v -0.092009 1.243028 1.147244
v -0.990699 1.369193 0.222230
v -0.972421 1.089311 -1.444127
v 0.577247 1.248684 -0.647571
v 0.416416 2.080986 1.012183
v -0.559135 2.271379 1.061835
v -0.822160 2.331798 -0.679108
v 0.111150 2.378577 -1.440950
v 1.056425 2.132403 -0.132520
v -0.071302 2.906362 -0.074579
v -0.128889 0.953140 0.652223
v 0.491014 0.863466 0.297962
v 0.375356 1.137184 0.812806
v 0.926236 1.170344 -0.006973
v 0.306756 0.890594 -0.404510
v -0.493719 0.954604 0.144132
v -0.549243 1.256388 1.111080
v -0.357416 0.865336 -0.610088
v -0.888235 1.261901 -0.574349
v -0.393855 0.990482 -1.258449
v 1.071323 1.664435 0.283283
v 1.066898 1.695546 -0.385992
v 0.302301 1.517495 1.145061
v 0.721227 1.615858 0.892221
v -0.904552 1.807416 0.721683
v -0.349270 1.697912 1.432887
v -0.831883 1.878290 -1.218365
v -1.268370 1.839339 -0.214440
v 0.354097 1.808927 -0.985902
v -0.418523 1.885235 -1.769064
v 0.724993 2.209233 0.816018
v 0.011417 2.248447 1.132781
v -0.782515 2.467884 0.230292
v -0.276245 2.437184 -1.775610
v 0.675441 2.329139 -0.656094
v 0.300650 2.704632 0.661183
v 0.443582 2.677193 -0.141724
v -0.040267 2.788945 0.650881
v -0.509219 2.724183 -0.645950
v -0.141290 2.807352 -1.190379
v 0.022196 0.671162 -0.500025
v -0.101027 0.680674 -0.578993
v -0.134314 -0.133479 -0.763943
v -0.093472 1.421401 -0.604790
v 0.130752 -0.166957 -0.671632
v 0.111461 1.464540 -0.605101
v 0.318179 -0.114907 -0.556525
v 0.294414 1.458472 -0.532493
v 0.416723 -0.090141 -0.436417
v 0.386824 1.451894 -0.445899
v 0.439006 -0.136222 -0.258009
v 0.405332 1.441913 -0.287002
v 0.386679 -0.175374 0.030220
v 0.354533 1.415246 -0.077994
v 0.245391 -0.094750 0.351166
v 0.202893 1.359250 0.034015
v 0.031557 -0.031758 0.523782
v -0.012039 1.331218 0.121346
v -0.205432 -0.033310 0.526304
v -0.236303 1.346667 0.235499
v -0.418103 -0.050217 0.374206
v -0.429322 1.337603 0.302719
v -0.571971 -0.060655 0.133194
v -0.596926 1.296429 0.215989
v -0.685927 -0.062207 -0.107837
v -0.720224 1.260113 0.005955
v -0.755394 -0.046119 -0.309448
v -0.731567 1.264855 -0.141029
v -0.744296 -0.012531 -0.473509
v -0.606434 1.267900 -0.192599
v -0.629614 0.006172 -0.632217
v -0.426574 1.266038 -0.298653
v -0.409124 -0.038273 -0.753845
v -0.263037 1.319312 -0.485031
v 0.118572 0.662049 -0.368754
v 0.201331 0.655178 -0.229909
v 0.243814 0.649638 -0.114409
v 0.221973 0.645667 -0.022430
v 0.136905 0.646008 0.045535
v -0.002010 0.651564 0.102560
v -0.174294 0.659131 0.158734
v -0.318647 0.678724 0.129640
v -0.418365 0.702109 0.006003
v -0.468933 0.721008 -0.182247
v -0.465362 0.731366 -0.358574
v -0.415909 0.728778 -0.489260
v -0.334566 0.713975 -0.566215
v -0.226896 0.695118 -0.601292
vt 0.5110 0.2936
vt 0.5510 0.3824
vt 0.4284 0.3740
vt 0.5781 0.4494
vt 0.6306 0.3832
vt 0.4244 0.2679
vt 0.5164 0.1741
vt 0.5896 0.2663
vt 0.8376 0.0000
vt 0.8224 0.0391
vt 0.7376 0.0043
vt 0.2699 0.6126
vt 0.2751 0.7105
vt 0.2164 0.6665
vt 0.3152 0.3218
vt 0.3173 0.4608
vt 0.2543 0.4179
vt 0.3173 0.0353
vt 0.3048 0.1846
vt 0.1933 0.0964
vt 0.8148 0.1477
vt 0.8850 0.3346
vt 0.7253 0.2230
vt 0.2651 0.8099
vt 0.1662 0.8437
vt 0.1890 0.7466
vt 0.2012 0.5427
vt 0.2570 0.2675
vt 0.1467 0.0000
vt 0.7260 0.0651
vt 0.1171 0.6815
vt 0.0873 0.7400
vt 0.0085 0.6766
vt 0.1025 0.5261
vt 0.0974 0.6077
vt 0.0000 0.6240
vt 0.1371 0.2006
vt 0.1345 0.3558
vt 0.0543 0.2149
vt 0.5218 0.5094
vt 0.5818 0.4494
vt 0.5993 0.5559
vt 0.3655 0.7372
vt 0.4381 0.6477
vt 0.5048 0.7376
vt 0.5993 0.7466
vt 0.0000 0.1225
vt 0.0053 0.3105
vt 0.0527 0.0149
vt 0.0370 0.4271
vt 0.1652 0.4852
vt 0.5835 0.8674
vt 0.5275 0.8717
vt 0.4194 0.8945
vt 0.6306 0.1601
vt 0.6557 0.0545
vt 0.6338 0.3116
vt 0.7311 0.4047
vt 0.6339 0.3981
vt 0.3173 0.7996
vt 0.8863 0.4361
vt 0.4263 0.1317
vt 0.3345 0.2348
vt 0.3214 0.1505
vt 0.2428 0.5261
vt 0.2751 0.5458
vt 0.3210 0.6872
vt 0.8863 0.1562
vt 0.5676 0.0803
vt 0.5007 0.0000
vt 0.3173 0.4009
vt 0.3785 0.4494
vt 0.4783 0.4459
vt 0.8722 0.8647
vt 0.9164 0.9897
vt 0.8792 1.0000
vt 0.8404 0.7391
vt 0.8471 0.8640
vt 0.8979 0.8667
vt 0.9412 0.9858
vt 0.9033 0.7266
vt 0.0421 0.8437
vt 0.0300 0.9545
vt 0.0000 0.9478
vt 0.9245 0.7275
vt 0.9223 0.8688
vt 0.0623 0.8496
vt 0.0775 0.9497
vt 0.9412 0.7317
vt 0.9387 0.8710
vt 0.7347 0.5867
vt 0.7224 0.4575
vt 0.7694 0.4494
vt 0.7448 0.5887
vt 0.7464 0.7191
vt 0.6910 0.5834
vt 0.6757 0.4635
vt 0.7157 0.7064
vt 0.7166 0.5849
vt 0.6603 0.5819
vt 0.6394 0.4602
vt 0.6768 0.6980
vt 0.6186 0.4564
vt 0.8313 0.5253
vt 0.8026 0.6538
vt 0.7694 0.6321
vt 0.6337 0.6964
vt 0.6401 0.5837
vt 0.8482 0.5336
vt 0.8376 0.6713
vt 0.0913 0.9085
vt 0.1073 0.8437
vt 0.1183 0.9078
vt 0.8775 0.5416
vt 0.8684 0.6816
vt 0.1486 0.8510
vt 0.1486 0.9205
vt 0.9069 0.5467
vt 0.8966 0.6822
vt 0.8734 0.4766
vt 0.9304 0.5488
vt 0.9278 0.6776
vt 0.8870 0.4695
vt 0.9459 0.5483
vt 0.9556 0.6738
vt 0.9116 0.4614
vt 0.9880 0.0785
vt 0.8962 0.0931
vt 0.9971 0.0462
vt 0.7920 0.9875
vt 0.8320 0.9979
vt 0.9501 0.4494
vt 0.9556 0.5451
vt 0.8268 0.7618
vt 0.8266 0.8637
vt 0.7920 0.8380
vt 0.6166 0.8894
vt 0.6427 0.7658
vt 0.8700 0.7279
vt 0.0775 0.8465
vt 0.7694 0.7266
vt 0.5993 0.6917
vt 0.0775 0.8550
vt 0.8495 0.4708
vt 0.9527 0.0000
vt 0.9811 0.0094
vt 0.9098 0.0163
vt 1.0000 0.0250
vt 0.8863 0.0653
vt 0.9936 0.1077
vt 1.0000 0.1251
vt 0.9803 0.1404
vt 0.9061 0.1285
vt 0.9433 0.1560
vt 0.9173 0.1536
vt 0.8876 0.0429
vt 0.9320 0.0007
vt 0.6901 0.9496
vt 0.6471 0.9266
vt 0.7866 0.8829
vt 0.6018 0.8554
vt 0.6107 0.8018
vt 0.5993 0.8290
vt 0.6941 0.7322
vt 0.7419 0.7266
vt 0.7758 0.7480
vt 0.7920 0.7894
vt 0.7789 0.9179
vt 0.7337 0.9520
vt 0.7637 0.9400
vn -0.0366 -0.9822 0.1845
vn 0.5628 -0.8261 -0.0280
vn -0.2091 -0.9667 0.1474
vn -0.2317 -0.9700 0.0729
vn 0.0704 -0.9919 -0.1055
vn 0.9473 -0.3144 0.0616
vn 0.3942 -0.5605 0.7283
vn -0.8731 -0.2818 0.3979
vn -0.9855 0.1572 0.0642
vn 0.5624 -0.2517 -0.7876
vn 0.8651 -0.1154 0.4882
vn 0.2784 -0.3929 0.8764
vn -0.9125 -0.2164 0.3472
vn -0.7649 0.2994 -0.5703
vn 0.6077 -0.2190 -0.7634
vn 0.3007 0.5096 0.8062
vn -0.0665 0.6605 0.7479
vn -0.7780 0.6255 -0.0597
vn 0.5562 0.6384 -0.5321
vn 0.6526 0.7307 -0.2003
vn 0.3928 0.9135 -0.1057
vn 0.6033 0.7598 -0.2422
vn 0.6483 0.6308 -0.4264
vn -0.3102 0.9485 -0.0647
vn -0.6224 0.7184 -0.3109
vn -0.7316 0.6093 -0.3057
vn -0.5465 0.8227 0.1565
vn -0.4500 0.8851 0.1185
vn -0.5251 0.7858 0.3268
vn 0.2334 0.9614 0.1456
vn 0.1427 0.6662 0.7320
vn 0.4309 0.5020 0.7499
vn 0.4108 0.9107 0.0420
vn 0.7380 0.6661 0.1086
vn 0.6535 0.7379 0.1686
vn 0.8214 0.3009 -0.4846
vn 0.6492 0.0786 -0.7565
vn 0.8018 -0.1248 -0.5844
vn 0.6291 -0.1712 -0.7582
vn -0.7855 0.1955 -0.5871
vn -0.8162 0.4493 -0.3632
vn -0.7680 0.6375 -0.0619
vn -0.8450 0.4109 0.3424
vn -0.8571 0.4000 0.3248
vn -0.0849 0.5192 0.8504
vn 0.4402 0.1899 0.8776
vn 0.3388 0.1504 0.9288
vn 0.5013 0.1071 0.8586
vn 0.8634 0.0589 0.5011
vn 0.9104 0.2907 0.2945
vn 0.6736 -0.2641 -0.6903
vn 0.6446 -0.3655 -0.6715
vn 0.1919 -0.4824 -0.8547
vn -0.8342 0.4294 -0.3460
vn -0.8623 -0.3261 -0.3875
vn -0.8451 -0.5334 -0.0369
vn -0.7735 0.1196 0.6224
vn -0.7916 -0.0827 0.6054
vn -0.0815 -0.5627 0.8226
vn 0.4962 0.1028 0.8621
vn 0.5309 -0.4974 0.6861
vn 0.4589 -0.4579 0.7614
vn 0.9996 0.0271 -0.0054
vn 0.9623 -0.2714 -0.0190
vn 0.7204 -0.5223 -0.4563
vn 0.4996 -0.7121 -0.4932
vn 0.0971 -0.9762 -0.1939
vn -0.1083 -0.9772 -0.1825
vn -0.5756 -0.7896 0.2124
vn -0.5990 -0.8006 -0.0135
vn -0.6384 -0.7694 0.0215
vn -0.6079 -0.7672 0.2045
vn -0.3635 -0.8950 0.2585
vn -0.0653 -0.8590 0.5079
vn 0.5785 -0.7098 -0.4019
vn 0.4905 -0.8563 -0.1617
vn 0.1179 -0.9906 -0.0692
vn 0.1567 -0.8573 0.4904
vn 0.1565 -0.8571 0.4908
vn 0.2820 -0.8194 0.4990
vn 0.4605 0.2349 -0.8560
vn 0.5373 -0.0348 -0.8427
vn 0.6943 0.3326 -0.6382
vn 0.7624 -0.2875 -0.5797
vn 0.9563 0.2888 -0.0449
vn 0.8061 -0.3222 -0.4964
vn 0.9586 0.2013 0.2014
vn 0.9024 -0.2590 -0.3443
vn 0.9137 0.2058 0.3505
vn 0.9634 -0.1499 0.2223
vn 0.6410 0.4253 0.6389
vn 0.6234 -0.0451 0.7806
vn 0.0063 0.4686 0.8834
vn 0.3790 -0.0200 0.9252
vn -0.5519 0.4102 0.7261
vn 0.3091 -0.0217 0.9508
vn -0.8143 0.2814 0.5077
vn -0.2126 -0.1273 0.9688
vn -0.8770 0.2455 0.4131
vn -0.7464 -0.4096 0.5245
vn -0.9002 0.2810 0.3326
vn -0.8643 -0.4676 0.1852
vn -0.9367 0.3500 0.0083
vn -0.9009 -0.4318 -0.0436
vn -0.7820 0.3352 -0.5255
vn -0.9275 -0.1361 -0.3483
vn -0.4261 0.2585 -0.8670
vn -0.6424 0.2449 -0.7262
vn -0.2295 0.9703 0.0760
vn 0.0403 0.2198 -0.9747
vn -0.2803 0.1601 -0.9465
vn 0.3459 0.2310 -0.9094
vn 0.1924 0.1904 -0.9627
vn -0.1156 -0.9928 0.0302
vn 0.7718 0.3297 -0.5437
vn 0.0267 -0.1342 -0.9906
vn 0.8084 0.3622 -0.4639
vn 0.3593 -0.1621 -0.9190
vn 0.9045 0.2830 -0.3191
vn 0.6438 -0.2879 -0.7089
vn 0.9501 0.2056 0.2345
vn 0.9578 -0.2576 -0.1277
vn 0.5777 0.3822 0.7212
vn 0.9650 -0.1498 0.2154
vn 0.3616 0.4004 0.8420
vn 0.6046 -0.0467 0.7952
vn 0.2864 0.5129 0.8093
vn 0.3786 -0.0201 0.9253
vn -0.1428 0.3323 0.9323
vn 0.4496 -0.0590 0.8913
vn -0.7291 0.2529 0.6359
vn 0.3309 -0.1874 0.9249
vn -0.9194 0.2809 0.2752
vn -0.3812 -0.2943 0.8764
vn -0.9369 0.3496 0.0016
vn -0.7547 -0.4082 0.5136
vn -0.8643 0.3757 -0.3345
vn -0.8975 -0.4376 0.0551
vn -0.6182 0.3245 -0.7159
vn -0.3785 0.1813 -0.9077
vn -0.2582 0.2578 -0.9311
vn -0.4848 0.2839 -0.8273
vn 0.0078 0.9979 0.0638
vn -0.3605 0.8974 0.2546
vn -0.0107 0.9994 0.0331
vn -0.1171 0.9771 0.1777
vn -0.0643 0.9899 -0.1265
vn -0.1795 0.9817 -0.0644
vn -0.1227 0.9673 -0.2220
vn -0.1176 0.9926 0.0292
vn -0.3175 0.9472 0.0437
vn 0.0138 0.9980 0.0611
vn -0.1342 0.9888 -0.0659
vn -0.0067 0.9891 -0.1469
vn -0.2021 0.9613 0.1873
vn 0.1895 0.1546 -0.9696
vn -0.7643 0.1736 -0.6210
vn 0.5412 0.1652 -0.8245
vn -0.5675 -0.0229 -0.8230
vn -0.3280 -0.9283 -0.1750
vn 0.3838 -0.8970 -0.2194
vn 0.5342 -0.8000 -0.2733
vn -0.0948 -0.9746 0.2031
vn 0.0076 -0.9950 0.1000
vn -0.0638 -0.9944 0.0838
vn 0.1105 -0.9870 -0.1168
vn -0.1286 -0.9698 -0.2072
vn -0.1259 -0.9920 0.0019
vn 0.2202 -0.9711 -0.0919
vn -0.0545 -0.9579 0.2820
vn -0.2759 -0.9489 -0.1534
vn -0.0928 -0.9944 0.0503
s off
f 1/1/1 14/2/1 13/3/1
f 2/4/2 14/2/2 16/5/2
f 1/1/3 13/3/3 18/6/3
f 1/1/4 18/6/4 20/7/4
f 1/1/5 20/7/5 17/8/5
f 2/9/6 16/10/6 23/11/6
f 3/12/7 15/13/7 25/14/7
f 4/15/8 19/16/8 27/17/8
f 5/18/9 21/19/9 29/20/9
f 6/21/10 22/22/10 31/23/10
f 2/24/11 23/25/11 26/26/11
f 3/12/12 25/14/12 28/27/12
f 4/15/13 27/17/13 30/28/13
f 5/18/14 29/20/14 32/29/14
f 6/21/15 31/23/15 24/30/15
f 7/31/16 33/32/16 38/33/16
f 8/34/17 34/35/17 40/36/17
f 9/37/18 35/38/18 41/39/18
f 10/40/19 36/41/19 42/42/19
f 11/43/20 37/44/20 39/45/20
f 39/45/21 42/42/21 12/46/21
f 39/45/22 37/44/22 42/42/22
f 37/44/23 10/40/23 42/42/23
f 42/47/24 41/39/24 12/48/24
f 42/47/25 36/49/25 41/39/25
f 36/49/26 9/37/26 41/39/26
f 41/39/27 40/50/27 12/48/27
f 41/39/28 35/38/28 40/50/28
f 35/38/29 8/51/29 40/50/29
f 40/52/30 38/53/30 12/46/30
f 40/36/31 34/35/31 38/33/31
f 34/35/32 7/31/32 38/33/32
f 38/53/33 39/45/33 12/46/33
f 38/53/34 33/54/34 39/45/34
f 33/54/35 11/43/35 39/45/35
f 24/30/36 37/55/36 11/56/36
f 24/30/37 31/23/37 37/55/37
f 31/23/38 10/57/38 37/55/38
f 32/58/39 36/59/39 10/57/39
f 32/29/40 29/20/40 36/49/40
f 29/20/41 9/37/41 36/49/41
f 30/28/42 35/38/42 9/37/42
f 30/28/43 27/17/43 35/38/43
f 27/17/44 8/51/44 35/38/44
f 28/27/45 34/35/45 8/34/45
f 28/27/46 25/14/46 34/35/46
f 25/14/47 7/31/47 34/35/47
f 26/26/48 33/32/48 7/31/48
f 26/26/49 23/25/49 33/32/49
f 23/60/50 11/43/50 33/54/50
f 31/23/51 32/58/51 10/57/51
f 31/23/52 22/22/52 32/58/52
f 22/22/53 5/61/53 32/58/53
f 29/20/54 30/28/54 9/37/54
f 29/20/55 21/19/55 30/28/55
f 21/62/56 4/63/56 30/64/56
f 27/17/57 28/65/57 8/51/57
f 27/17/58 19/16/58 28/65/58
f 19/66/59 3/12/59 28/27/59
f 25/14/60 26/26/60 7/31/60
f 25/14/61 15/13/61 26/26/61
f 15/13/62 2/24/62 26/26/62
f 23/60/63 24/67/63 11/43/63
f 23/11/64 16/10/64 24/30/64
f 16/10/65 6/21/65 24/30/65
f 17/68/66 22/22/66 6/21/66
f 17/8/67 20/7/67 22/69/67
f 20/7/68 5/70/68 22/69/68
f 20/7/69 21/62/69 5/70/69
f 20/7/70 18/6/70 21/62/70
f 18/6/71 4/63/71 21/62/71
f 18/6/72 19/71/72 4/63/72
f 18/6/73 13/3/73 19/71/73
f 13/3/74 3/72/74 19/71/74
f 16/10/75 17/68/75 6/21/75
f 16/5/76 14/2/76 17/8/76
f 14/2/77 1/1/77 17/8/77
f 13/3/78 15/73/78 3/72/78
f 13/3/79 14/2/79 15/73/79
f 14/2/80 2/4/80 15/73/80
f 43/74/81 49/75/81 47/76/81
f 46/77/82 43/74/82 44/78/82
f 77/79/83 51/80/83 49/75/83
f 43/74/84 50/81/84 77/79/84
f 78/82/85 53/83/85 51/84/85
f 77/79/86 52/85/86 78/86/86
f 79/87/87 55/88/87 53/83/87
f 78/86/88 54/89/88 79/90/88
f 80/91/89 57/92/89 55/93/89
f 79/94/90 56/95/90 80/91/90
f 57/92/91 82/96/91 59/97/91
f 80/91/92 58/98/92 81/99/92
f 59/97/93 83/100/93 61/101/93
f 81/99/94 60/102/94 82/96/94
f 83/100/95 63/103/95 61/101/95
f 60/102/96 83/100/96 82/96/96
f 84/104/97 65/105/97 63/106/97
f 62/107/98 84/108/98 83/100/98
f 85/109/99 67/110/99 65/105/99
f 84/111/100 66/112/100 85/113/100
f 86/114/101 69/115/101 67/110/101
f 85/113/102 68/116/102 86/117/102
f 87/118/103 71/119/103 69/115/103
f 86/114/104 70/120/104 87/118/104
f 88/121/105 73/122/105 71/119/105
f 87/118/106 72/123/106 88/121/106
f 89/124/107 75/125/107 73/122/107
f 88/121/108 74/126/108 89/124/108
f 74/127/109 60/128/109 76/129/109
f 75/130/110 44/78/110 45/131/110
f 89/124/111 76/132/111 90/133/111
f 45/131/112 43/74/112 47/76/112
f 76/134/113 44/78/113 90/135/113
f 65/136/114 47/137/114 55/138/114
f 43/74/115 77/79/115 49/75/115
f 46/77/116 48/139/116 43/74/116
f 77/79/117 78/86/117 51/80/117
f 43/74/118 48/139/118 50/81/118
f 78/82/119 79/87/119 53/83/119
f 77/79/120 50/81/120 52/85/120
f 79/87/121 80/140/121 55/88/121
f 78/86/122 52/85/122 54/89/122
f 80/91/123 81/99/123 57/92/123
f 79/94/124 54/141/124 56/95/124
f 57/92/125 81/99/125 82/96/125
f 80/91/126 56/95/126 58/98/126
f 59/97/127 82/96/127 83/100/127
f 81/99/128 58/98/128 60/102/128
f 83/100/129 84/108/129 63/103/129
f 60/102/130 62/107/130 83/100/130
f 84/104/131 85/109/131 65/105/131
f 62/107/132 64/142/132 84/108/132
f 85/109/133 86/114/133 67/110/133
f 84/111/134 64/143/134 66/112/134
f 86/114/135 87/118/135 69/115/135
f 85/113/136 66/112/136 68/116/136
f 87/118/137 88/121/137 71/119/137
f 86/114/138 68/144/138 70/120/138
f 88/121/139 89/124/139 73/122/139
f 87/118/140 70/120/140 72/123/140
f 89/124/141 90/133/141 75/125/141
f 88/121/142 72/123/142 74/126/142
f 50/145/143 48/146/143 54/147/143
f 46/148/144 76/129/144 58/149/144
f 72/150/145 70/151/145 68/152/145
f 48/146/146 58/149/146 54/147/146
f 74/127/147 72/150/147 62/153/147
f 68/152/148 66/154/148 72/150/148
f 64/155/149 62/153/149 66/154/149
f 60/128/150 58/149/150 76/129/150
f 56/156/151 54/147/151 58/149/151
f 52/157/152 50/145/152 54/147/152
f 72/150/153 66/154/153 62/153/153
f 62/153/154 60/128/154 74/127/154
f 48/146/155 46/148/155 58/149/155
f 75/130/156 90/135/156 44/78/156
f 89/124/157 74/126/157 76/132/157
f 45/131/158 44/78/158 43/74/158
f 76/134/159 46/77/159 44/78/159
f 75/158/160 45/159/160 67/160/160
f 47/137/161 49/161/161 53/162/161
f 51/163/162 53/162/162 49/161/162
f 55/138/163 57/164/163 65/136/163
f 59/165/164 61/166/164 63/167/164
f 63/167/165 65/136/165 57/164/165
f 67/160/166 69/168/166 73/169/166
f 71/170/167 73/169/167 69/168/167
f 45/159/168 47/137/168 67/160/168
f 53/162/169 55/138/169 47/137/169
f 59/165/170 63/167/170 57/164/170
f 67/160/171 73/169/171 75/158/171
f 47/137/172 65/136/172 67/160/172
