# Blender v2.77 (sub 0) OBJ File: 'tree.blend'
# www.blender.org
mtllib tree3.mtl
o Cylinder
v 0.000000 -1.176192 -1.557657
v -0.000000 4.000000 -0.101440
v 1.060660 -1.000000 -1.060660
v 0.071729 4.000000 -0.071729
v 1.557657 -1.176192 0.000000
v 0.101440 4.000000 -0.000000
v 1.060660 -1.000000 1.060660
v 0.071729 4.000000 0.071729
v -0.000000 -1.176192 1.557657
v -0.000000 4.000000 0.101440
v -1.060660 -1.000000 1.060660
v -0.071729 4.000000 0.071729
v -1.557657 -1.176192 -0.000000
v -0.101440 4.000000 -0.000000
v -1.060660 -1.000000 -1.060660
v -0.071729 4.000000 -0.071729
v 0.000000 -0.342859 -1.315604
v 0.000000 0.490475 -1.073551
v 0.000000 1.323808 -0.831498
v 0.000000 2.157141 -0.589445
v -0.000000 2.990475 -0.347392
v 0.236551 3.166667 -0.236551
v 0.401373 2.333333 -0.401373
v 0.566195 1.500000 -0.566195
v 0.731017 0.666667 -0.731017
v 0.895838 -0.166667 -0.895838
v 0.347392 2.990474 0.000000
v 0.589445 2.157141 0.000000
v 0.831498 1.323808 0.000000
v 1.073551 0.490474 0.000000
v 1.315604 -0.342859 0.000000
v 0.236551 3.166667 0.236551
v 0.401373 2.333333 0.401373
v 0.566195 1.500000 0.566195
v 0.731017 0.666667 0.731017
v 0.895838 -0.166667 0.895838
v -0.000000 2.990474 0.347392
v -0.000000 2.157141 0.589445
v -0.000000 1.323808 0.831498
v -0.000000 0.490474 1.073551
v -0.000000 -0.342859 1.315604
v -0.236551 3.166667 0.236551
v -0.401373 2.333333 0.401373
v -0.566195 1.500000 0.566195
v -0.731017 0.666667 0.731016
v -0.895838 -0.166667 0.895838
v -0.347392 2.990474 -0.000000
v -0.589445 2.157141 -0.000000
v -0.831498 1.323808 -0.000000
v -1.073551 0.490474 -0.000000
v -1.315604 -0.342859 -0.000000
v -0.236551 3.166667 -0.236551
v -0.401373 2.333333 -0.401373
v -0.566195 1.500000 -0.566195
v -0.731017 0.666667 -0.731016
v -0.895838 -0.166667 -0.895838
v 0.000000 2.898215 -0.542774
v 0.369593 3.074407 -0.369593
v 0.542774 2.898215 0.000000
v 0.369593 3.074407 0.369593
v -0.000000 2.898215 0.542774
v -0.369593 3.074407 0.369593
v -0.542774 2.898215 -0.000000
v -0.369593 3.074407 -0.369593
v 0.000000 2.064882 -0.924563
v 0.629566 2.241073 -0.629566
v 0.924563 2.064881 0.000000
v 0.629566 2.241073 0.629566
v -0.000000 2.064881 0.924563
v -0.629566 2.241073 0.629566
v -0.924563 2.064881 -0.000000
v -0.629566 2.241073 -0.629566
v 0.000000 1.231548 -1.148746
v 0.782219 1.407740 -0.782219
v 1.148746 1.231548 0.000000
v 0.782219 1.407740 0.782219
v -0.000000 1.231548 1.148746
v -0.782219 1.407740 0.782219
v -1.148746 1.231548 -0.000000
v -0.782219 1.407740 -0.782219
v 0.000000 0.398215 -1.412379
v 0.961736 0.574407 -0.961736
v 1.412379 0.398215 0.000000
v 0.961736 0.574407 0.961736
v -0.000000 0.398215 1.412379
v -0.961736 0.574407 0.961736
v -1.412379 0.398215 -0.000000
v -0.961736 0.574407 -0.961736
v 0.000000 -0.435119 -1.622899
v 1.105085 -0.258927 -1.105085
v 1.622899 -0.435119 0.000000
v 1.105085 -0.258927 1.105085
v -0.000000 -0.435119 1.622899
v -1.105086 -0.258927 1.105085
v -1.622899 -0.435119 -0.000000
v -1.105086 -0.258927 -1.105085
v 1.261451 -1.092260 -1.261451
v 1.852532 -1.268452 0.000000
v 1.261451 -1.092260 1.261451
v -0.000000 -1.268452 1.852532
v -1.261451 -1.092260 1.261450
v -1.852532 -1.268452 -0.000000
v -1.261451 -1.092260 -1.261451
v 0.000000 -1.268452 -1.852532
v -0.176074 -1.576257 -0.176074
v -0.249006 -1.576257 -0.000000
v -0.000000 -1.576257 -0.249006
v 0.176074 -1.576257 -0.176074
v 0.249006 -1.576257 0.000000
v 0.176074 -1.576257 0.176074
v -0.192660 -1.032029 -0.192660
v -0.192660 -2.335416 -0.192660
v -0.272463 -1.032029 -0.000000
v -0.272463 -2.335416 -0.000000
v -0.192660 -1.032029 0.192660
v -0.192660 -2.335416 0.192660
v -0.000000 -1.032029 0.272463
v -0.000000 -2.335416 0.272463
v 0.192660 -1.032029 0.192660
v 0.192660 -2.335416 0.192660
v 0.272463 -1.032029 0.000000
v 0.272463 -2.335416 0.000000
v 0.192660 -1.032029 -0.192660
v 0.192660 -2.335416 -0.192660
v -0.000000 -1.032029 -0.272463
v -0.000000 -2.335416 -0.272463
v -0.176074 -1.576257 0.176074
v -0.000000 -1.576257 0.249006
vn 0.0000 0.7781 -0.6281
vn 0.6445 -0.4113 -0.6445
vn 0.0000 -0.7248 -0.6890
vn 0.6281 0.7781 0.0000
vn 0.6890 -0.7248 0.0000
vn 0.6445 -0.4113 0.6445
vn 0.0000 0.7781 0.6281
vn 0.0000 -0.7248 0.6890
vn -0.6445 -0.4113 0.6445
vn -0.6281 0.7781 0.0000
vn -0.6890 -0.7248 0.0000
vn 0.4407 0.7820 0.4407
vn -0.6445 -0.4113 -0.6445
vn -0.1562 -0.9753 -0.1562
vn 0.1562 -0.9753 -0.1562
vn 0.1562 -0.9753 0.1562
vn -0.6900 -0.7238 0.0000
vn -0.6147 -0.4942 -0.6147
vn -0.8242 -0.5662 0.0000
vn -0.7182 -0.6958 0.0000
vn -0.6223 -0.4747 -0.6223
vn -0.8254 -0.5645 0.0000
vn -0.7383 -0.6744 0.0000
vn -0.6354 -0.4388 -0.6354
vn -0.8325 -0.5540 0.0000
vn -0.7657 -0.6431 0.0000
vn -0.6395 -0.4267 -0.6395
vn -0.8170 -0.5766 0.0000
vn -0.7696 -0.6384 0.0000
vn -0.6561 -0.3729 -0.6561
vn -0.8137 -0.5813 0.0000
vn 0.0000 -0.7238 -0.6900
vn 0.0000 -0.5662 -0.8242
vn 0.0000 -0.6958 -0.7182
vn 0.0000 -0.5645 -0.8254
vn 0.0000 -0.6744 -0.7383
vn 0.0000 -0.5540 -0.8325
vn 0.0000 -0.6431 -0.7657
vn 0.0000 -0.5766 -0.8170
vn 0.0000 -0.6384 -0.7696
vn 0.0000 -0.5813 -0.8137
vn -0.6147 -0.4942 0.6147
vn -0.6223 -0.4747 0.6223
vn -0.6354 -0.4388 0.6354
vn -0.6395 -0.4267 0.6395
vn -0.6561 -0.3729 0.6561
vn 0.0000 -0.7238 0.6900
vn 0.0000 -0.5662 0.8242
vn 0.0000 -0.6958 0.7182
vn 0.0000 -0.5645 0.8254
vn 0.0000 -0.6744 0.7383
vn 0.0000 -0.5540 0.8325
vn 0.0000 -0.6431 0.7657
vn 0.0000 -0.5766 0.8170
vn 0.0000 -0.6384 0.7696
vn 0.0000 -0.5813 0.8137
vn 0.6147 -0.4942 0.6147
vn 0.6223 -0.4747 0.6223
vn 0.6354 -0.4388 0.6354
vn 0.6395 -0.4267 0.6395
vn 0.6561 -0.3729 0.6561
vn 0.6900 -0.7238 0.0000
vn 0.8242 -0.5662 0.0000
vn 0.7182 -0.6958 0.0000
vn 0.8254 -0.5645 0.0000
vn 0.7383 -0.6744 0.0000
vn 0.8325 -0.5540 0.0000
vn 0.7657 -0.6431 0.0000
vn 0.8170 -0.5766 0.0000
vn 0.7696 -0.6384 0.0000
vn 0.8137 -0.5813 0.0000
vn 0.6147 -0.4942 -0.6147
vn 0.6223 -0.4747 -0.6223
vn 0.6354 -0.4388 -0.6354
vn 0.6395 -0.4267 -0.6395
vn 0.6561 -0.3729 -0.6561
vn -0.3499 -0.8690 -0.3499
vn -0.3499 -0.8690 0.3499
vn 0.3499 -0.8690 0.3499
vn 0.3499 -0.8690 -0.3499
vn 0.4128 -0.8119 -0.4128
vn 0.4128 -0.8119 0.4128
vn -0.4128 -0.8119 0.4128
vn -0.4128 -0.8119 -0.4128
vn 0.4264 -0.7977 -0.4264
vn 0.4264 -0.7977 0.4264
vn -0.4264 -0.7977 0.4264
vn -0.4264 -0.7977 -0.4264
vn 0.4354 -0.7879 -0.4354
vn 0.4354 -0.7879 0.4354
vn -0.4354 -0.7879 0.4354
vn -0.4354 -0.7879 -0.4354
vn 0.4314 -0.7923 -0.4314
vn 0.4314 -0.7923 0.4314
vn -0.4314 -0.7923 0.4314
vn -0.4314 -0.7923 -0.4314
vn 0.0000 -0.9481 0.3179
vn -0.1562 -0.9753 0.1562
vn -0.3179 -0.9481 0.0000
vn 0.0000 -0.9481 -0.3179
vn 0.3179 -0.9481 0.0000
vn 0.4407 0.7820 -0.4407
vn -0.4407 0.7820 0.4407
vn -0.4407 0.7820 -0.4407
vn 1.0000 -0.0061 0.0000
vn 0.5556 -0.6186 0.5556
vn 0.7857 -0.6186 0.0000
vn 0.0000 0.6140 -0.7893
vn 0.7071 -0.0061 -0.7071
vn 0.0000 -0.0061 -1.0000
vn 0.7071 -0.0061 0.7071
vn 0.0000 -0.6186 0.7857
vn 0.5581 0.6140 -0.5581
vn -0.7071 -0.0061 0.7071
vn -0.5556 -0.6186 0.5556
vn 0.7893 0.6140 0.0000
vn -0.7857 -0.6186 0.0000
vn 0.0000 0.6140 0.7893
vn 0.0000 -0.0061 1.0000
vn -0.7071 -0.0061 -0.7071
vn 0.0000 -0.6186 -0.7857
vn -0.5556 -0.6186 -0.5556
vn 0.5556 -0.6186 -0.5556
vn -1.0000 -0.0061 0.0000
vn -0.5581 0.6140 0.5581
vn -0.7893 0.6140 0.0000
vn -0.5581 0.6140 -0.5581
vn 0.5581 0.6140 0.5581
usemtl TreeLeaves
s 1
f 2//1 58//2 57//3
f 58//2 6//4 59//5
f 6//4 60//6 59//5
f 60//6 10//7 61//8
f 10//7 62//9 61//8
f 62//9 14//10 63//11
f 14//10 8//12 6//4
f 64//13 2//1 57//3
f 14//10 64//13 63//11
f 7//14 11//15 15//16
f 51//17 103//18 102//19
f 50//20 96//21 95//22
f 49//23 88//24 87//25
f 48//26 80//27 79//28
f 47//29 72//30 71//31
f 103//18 17//32 104//33
f 96//21 18//34 89//35
f 88//24 19//36 81//37
f 80//27 20//38 73//39
f 72//30 21//40 65//41
f 101//42 51//17 102//19
f 94//43 50//20 95//22
f 86//44 49//23 87//25
f 78//45 48//26 79//28
f 70//46 47//29 71//31
f 41//47 101//42 100//48
f 40//49 94//43 93//50
f 39//51 86//44 85//52
f 38//53 78//45 77//54
f 37//55 70//46 69//56
f 99//57 41//47 100//48
f 92//58 40//49 93//50
f 84//59 39//51 85//52
f 76//60 38//53 77//54
f 68//61 37//55 69//56
f 31//62 99//57 98//63
f 30//64 92//58 91//65
f 29//66 84//59 83//67
f 28//68 76//60 75//69
f 27//70 68//61 67//71
f 97//72 31//62 98//63
f 90//73 30//64 91//65
f 82//74 29//66 83//67
f 74//75 28//68 75//69
f 66//76 27//70 67//71
f 17//32 97//72 104//33
f 18//34 90//73 89//35
f 19//36 82//74 81//37
f 20//38 74//75 73//39
f 21//40 66//76 65//41
f 47//29 64//13 52//77
f 64//13 21//40 52//77
f 62//9 47//29 42//78
f 37//55 62//9 42//78
f 60//6 37//55 32//79
f 27//70 60//6 32//79
f 58//2 27//70 22//80
f 21//40 58//2 22//80
f 20//38 66//76 23//81
f 66//76 28//68 23//81
f 28//68 68//61 33//82
f 68//61 38//53 33//82
f 38//53 70//46 43//83
f 70//46 48//26 43//83
f 72//30 20//38 53//84
f 48//26 72//30 53//84
f 19//36 74//75 24//85
f 74//75 29//66 24//85
f 29//66 76//60 34//86
f 76//60 39//51 34//86
f 39//51 78//45 44//87
f 78//45 49//23 44//87
f 80//27 19//36 54//88
f 49//23 80//27 54//88
f 18//34 82//74 25//89
f 82//74 30//64 25//89
f 30//64 84//59 35//90
f 84//59 40//49 35//90
f 40//49 86//44 45//91
f 86//44 50//20 45//91
f 88//24 18//34 55//92
f 50//20 88//24 55//92
f 17//32 90//73 26//93
f 90//73 31//62 26//93
f 31//62 92//58 36//94
f 92//58 41//47 36//94
f 41//47 94//43 46//95
f 94//43 51//17 46//95
f 96//21 17//32 56//96
f 51//17 96//21 56//96
f 1//97 97//72 3//98
f 97//72 5//99 3//98
f 5//99 99//57 7//14
f 99//57 9//100 7//14
f 9//100 101//42 11//15
f 101//42 13//101 11//15
f 103//18 1//97 15//16
f 13//101 103//18 15//16
f 2//1 4//102 58//2
f 58//2 4//102 6//4
f 6//4 8//12 60//6
f 60//6 8//12 10//7
f 10//7 12//103 62//9
f 62//9 12//103 14//10
f 6//4 4//102 14//10
f 2//1 16//104 14//10
f 14//10 12//103 10//7
f 10//7 8//12 14//10
f 4//102 2//1 14//10
f 64//13 16//104 2//1
f 14//10 16//104 64//13
f 15//16 1//97 3//98
f 3//98 5//99 7//14
f 7//14 9//100 11//15
f 11//15 13//101 15//16
f 15//16 3//98 7//14
f 51//17 56//96 103//18
f 50//20 55//92 96//21
f 49//23 54//88 88//24
f 48//26 53//84 80//27
f 47//29 52//77 72//30
f 103//18 56//96 17//32
f 96//21 55//92 18//34
f 88//24 54//88 19//36
f 80//27 53//84 20//38
f 72//30 52//77 21//40
f 101//42 46//95 51//17
f 94//43 45//91 50//20
f 86//44 44//87 49//23
f 78//45 43//83 48//26
f 70//46 42//78 47//29
f 41//47 46//95 101//42
f 40//49 45//91 94//43
f 39//51 44//87 86//44
f 38//53 43//83 78//45
f 37//55 42//78 70//46
f 99//57 36//94 41//47
f 92//58 35//90 40//49
f 84//59 34//86 39//51
f 76//60 33//82 38//53
f 68//61 32//79 37//55
f 31//62 36//94 99//57
f 30//64 35//90 92//58
f 29//66 34//86 84//59
f 28//68 33//82 76//60
f 27//70 32//79 68//61
f 97//72 26//93 31//62
f 90//73 25//89 30//64
f 82//74 24//85 29//66
f 74//75 23//81 28//68
f 66//76 22//80 27//70
f 17//32 26//93 97//72
f 18//34 25//89 90//73
f 19//36 24//85 82//74
f 20//38 23//81 74//75
f 21//40 22//80 66//76
f 47//29 63//11 64//13
f 64//13 57//3 21//40
f 62//9 63//11 47//29
f 37//55 61//8 62//9
f 60//6 61//8 37//55
f 27//70 59//5 60//6
f 58//2 59//5 27//70
f 21//40 57//3 58//2
f 20//38 65//41 66//76
f 66//76 67//71 28//68
f 28//68 67//71 68//61
f 68//61 69//56 38//53
f 38//53 69//56 70//46
f 70//46 71//31 48//26
f 72//30 65//41 20//38
f 48//26 71//31 72//30
f 19//36 73//39 74//75
f 74//75 75//69 29//66
f 29//66 75//69 76//60
f 76//60 77//54 39//51
f 39//51 77//54 78//45
f 78//45 79//28 49//23
f 80//27 73//39 19//36
f 49//23 79//28 80//27
f 18//34 81//37 82//74
f 82//74 83//67 30//64
f 30//64 83//67 84//59
f 84//59 85//52 40//49
f 40//49 85//52 86//44
f 86//44 87//25 50//20
f 88//24 81//37 18//34
f 50//20 87//25 88//24
f 17//32 89//35 90//73
f 90//73 91//65 31//62
f 31//62 91//65 92//58
f 92//58 93//50 41//47
f 41//47 93//50 94//43
f 94//43 95//22 51//17
f 96//21 89//35 17//32
f 51//17 95//22 96//21
f 1//97 104//33 97//72
f 97//72 98//63 5//99
f 5//99 98//63 99//57
f 99//57 100//48 9//100
f 9//100 100//48 101//42
f 101//42 102//19 13//101
f 103//18 104//33 1//97
f 13//101 102//19 103//18
usemtl Bark
f 109//105 120//106 122//107
f 125//108 108//109 107//110
f 110//111 118//112 120//106
f 123//113 109//105 108//109
f 118//112 127//114 116//115
f 121//116 110//111 109//105
f 127//114 114//117 116//115
f 110//111 117//118 128//119
f 105//120 126//121 112//122
f 117//118 127//114 128//119
f 126//121 108//109 124//123
f 106//124 112//122 114//117
f 115//125 106//124 127//114
f 113//126 117//118 125//108
f 105//120 125//108 107//110
f 106//124 111//127 105//120
f 124//123 109//105 122//107
f 120//106 116//115 112//122
f 109//105 110//111 120//106
f 125//108 123//113 108//109
f 110//111 128//119 118//112
f 123//113 121//116 109//105
f 118//112 128//119 127//114
f 121//116 119//128 110//111
f 127//114 106//124 114//117
f 110//111 119//128 117//118
f 105//120 107//110 126//121
f 117//118 115//125 127//114
f 126//121 107//110 108//109
f 106//124 105//120 112//122
f 115//125 113//126 106//124
f 121//116 123//113 125//108
f 125//108 111//127 113//126
f 113//126 115//125 117//118
f 117//118 119//128 121//116
f 121//116 125//108 117//118
f 105//120 111//127 125//108
f 106//124 113//126 111//127
f 124//123 108//109 109//105
f 112//122 126//121 124//123
f 124//123 122//107 112//122
f 120//106 118//112 116//115
f 116//115 114//117 112//122
f 112//122 122//107 120//106
