# Blender v2.77 (sub 0) OBJ File: 'tree.blend'
# www.blender.org
mtllib tree2.mtl
o Icosphere
v -0.104929 -0.152089 1.128784
v -0.107113 3.701034 1.266444
v 0.383621 -0.152089 1.410849
v 0.129490 3.701034 1.403047
v 0.383621 -0.152089 1.974978
v 0.129490 3.701034 1.676252
v -0.104929 -0.152089 2.257043
v -0.107113 3.701034 1.812856
v -0.593479 -0.152089 1.974978
v -0.343717 3.701034 1.676252
v -0.593479 -0.152089 1.410849
v -0.343717 3.701034 1.403047
v -1.643694 6.694511 -0.675599
v -0.659181 8.391484 0.943330
v -0.235868 4.548700 3.421243
v 1.828270 4.548708 1.934314
v 0.204994 3.246527 0.943330
v -1.048997 3.496509 1.854406
v -2.721226 5.055025 1.571189
v -1.491947 4.548707 -0.498605
v 1.051977 4.548706 -0.488278
v 2.304549 5.948971 1.257258
v 0.555230 5.948971 3.664994
v -2.385073 6.684131 2.520622
v 0.551537 6.219437 -1.139115
v -0.070355 7.463208 3.201799
v 1.834944 7.447167 1.257258
vt 0.0648 0.4558
vt 0.0080 0.2985
vt 0.2519 0.3378
vt 0.5592 0.6736
vt 0.5592 0.8472
vt 0.3021 0.7462
vt 0.0080 0.7094
vt 0.0107 0.4918
vt 0.1936 0.5453
vt 0.8333 0.0373
vt 0.8113 0.1423
vt 0.6206 0.0102
vt 0.4403 0.9460
vt 0.2893 0.9473
vt 0.2893 0.2488
vt 0.5502 0.3547
vt 0.3491 0.4777
vt 0.8333 0.3836
vt 0.6233 0.3922
vt 0.5661 0.1182
vt 0.2734 0.1637
vt 0.0472 0.1381
vt 0.1831 0.0102
vt 0.5258 0.1564
vt 0.2179 0.7421
vt 0.3535 0.0369
vt 0.3177 0.5555
vt 0.2734 0.4714
vt 0.7664 0.5771
vt 0.5751 0.5186
vt 0.7847 0.4981
vt 0.1255 0.9206
vt 0.0145 0.9206
vt 0.5502 0.0102
vt 0.4997 0.4981
vt 0.5957 0.6726
vt 0.6153 0.8381
vt 0.7847 0.8484
vt 0.8915 0.3783
vt 0.8801 0.0102
vt 0.8990 0.0164
vt 0.9305 0.3911
vt 0.8006 0.9044
vt 0.8337 0.4981
vt 0.8498 0.5036
vt 0.8339 0.9157
vt 0.8718 0.5036
vt 0.8792 0.9157
vt 0.8952 0.9109
vt 0.9122 0.4981
vt 0.9350 0.4981
vt 0.9422 0.9109
vt 0.2455 0.5411
vt 0.2338 0.5165
vt 0.2393 0.4918
vt 0.2565 0.4918
vt 0.2681 0.5165
vt 0.2626 0.5411
vt 0.9464 0.4238
vt 0.9678 0.0102
vt 0.9899 0.0102
vt 0.9920 0.4238
vt 0.8492 0.3911
vt 0.8596 0.0164
vt 0.6504 0.9594
vt 0.6128 0.9898
vt 0.5751 0.9597
vt 0.5751 0.8993
vt 0.6128 0.8689
vt 0.6504 0.8989
vn 0.8090 0.0090 0.5878
vn -0.3543 0.0375 0.9344
vn -0.2255 -0.0959 -0.9695
vn 0.8077 0.0123 -0.5895
vn -0.3997 0.8065 0.4357
vn -0.7690 0.6144 -0.1764
vn -0.0030 0.6912 -0.7227
vn 0.3528 0.7425 -0.5694
vn 0.3062 0.9059 0.2925
vn 0.7948 0.2491 -0.5533
vn -0.9247 0.3152 -0.2135
vn -0.3255 0.1510 0.9334
vn 0.6383 0.4539 0.6217
vn 0.7842 0.2458 0.5698
vn 0.0038 -0.3620 -0.9322
vn -0.8661 -0.1016 -0.4895
vn -0.6080 -0.3024 0.7341
vn 0.5287 -0.4264 0.7339
vn 0.8614 -0.4264 -0.2760
vn 0.0027 -0.7406 -0.6720
vn -0.3980 -0.8631 -0.3110
vn -0.6483 -0.7330 -0.2057
vn -0.5792 -0.5052 0.6398
vn 0.6887 -0.6906 -0.2207
vn 0.1796 -0.8573 0.4825
vn 0.3486 -0.8027 0.4839
vn 0.4998 0.0312 -0.8656
vn 0.9978 0.0658 0.0000
vn 0.4975 0.0996 0.8617
vn -0.4975 0.0991 0.8618
vn 0.0000 1.0000 0.0000
vn -0.9979 0.0647 0.0000
vn -0.4998 0.0306 -0.8656
vn 0.0000 -1.0000 0.0000
usemtl leaves
s off
f 16/1/1 22/2/1 23/3/1
f 15/4/2 23/5/2 24/6/2
f 20/7/3 13/8/3 25/9/3
f 21/10/4 25/11/4 22/12/4
f 24/6/5 26/13/5 14/14/5
f 13/15/6 24/16/6 14/17/6
f 25/11/7 13/18/7 14/19/7
f 27/20/8 25/11/8 14/19/8
f 26/21/9 27/22/9 14/23/9
f 22/12/10 25/11/10 27/20/10
f 19/24/11 24/16/11 13/15/11
f 24/6/12 23/5/12 26/13/12
f 23/3/13 27/22/13 26/21/13
f 23/3/14 22/2/14 27/22/14
f 21/25/15 20/7/15 25/9/15
f 13/15/16 20/26/16 19/24/16
f 19/27/17 15/4/17 24/6/17
f 15/28/18 16/1/18 23/3/18
f 16/29/19 21/30/19 22/31/19
f 17/32/20 20/7/20 21/25/20
f 17/32/21 18/33/21 20/7/21
f 18/34/22 19/24/22 20/26/22
f 18/35/23 15/4/23 19/27/23
f 16/29/24 17/36/24 21/30/24
f 18/37/25 17/36/25 15/38/25
f 17/36/26 16/29/26 15/38/26
usemtl truck
f 1/39/27 2/40/27 4/41/27 3/42/27
f 3/43/28 4/44/28 6/45/28 5/46/28
f 5/46/29 6/45/29 8/47/29 7/48/29
f 7/49/30 8/50/30 10/51/30 9/52/30
f 4/53/31 2/54/31 12/55/31 10/56/31 8/57/31 6/58/31
f 9/59/32 10/60/32 12/61/32 11/62/32
f 11/63/33 12/64/33 2/40/33 1/39/33
f 1/65/34 3/66/34 5/67/34 7/68/34 9/69/34 11/70/34
